<svg width="25" height="28" viewBox="0 0 25 28" fill="none" xmlns="http://www.w3.org/2000/svg">
<path d="M0 4.39258C0.222246 3.78487 0.359634 3.12903 0.681891 2.57948C1.55774 1.08629 2.9094 0.280019 4.66009 0.243917C6.47746 0.206813 8.29583 0.230881 10.1132 0.230881C13.1681 0.230881 16.2229 0.222858 19.2788 0.233889C21.6397 0.241912 23.5126 1.67394 24.042 3.87212C24.1349 4.2572 24.1713 4.66535 24.1723 5.06246C24.1814 9.83689 24.1824 14.6123 24.1763 19.3867C24.1723 22.1796 22.0791 24.2354 19.2546 24.2394C18.3585 24.2404 17.4615 24.2494 16.5654 24.2334C16.3017 24.2284 16.1219 24.3136 15.9411 24.4981C15.0127 25.4367 14.0773 26.3704 13.1287 27.289C12.9004 27.5106 12.6114 27.671 12.3498 27.8596H11.8194C11.579 27.6861 11.3123 27.5377 11.1022 27.3341C10.1284 26.3874 9.17573 25.4187 8.19885 24.476C8.0645 24.3467 7.83518 24.2554 7.64829 24.2504C6.67748 24.2283 5.70465 24.2504 4.73283 24.2374C2.62048 24.2093 0.763718 22.7983 0.183858 20.7917C0.118194 20.5661 0.0606125 20.3384 0 20.1118C0 14.872 0 9.63231 0 4.39258ZM15.3976 11.7573C16.0441 10.93 16.3805 9.92413 16.2341 8.78192C16.0876 7.6367 15.5794 6.68402 14.6763 5.95598C13.1418 4.7185 10.9284 4.7536 9.41313 6.03219C8.63425 6.69004 8.15946 7.53442 7.98166 8.52721C7.76345 9.74964 8.05945 10.8588 8.83832 11.8205C8.80498 11.8656 8.79488 11.8907 8.77568 11.9027C8.72315 11.9358 8.66557 11.9629 8.61102 11.995C6.26632 13.3638 5.01266 15.3945 4.87123 18.0931C4.82981 18.8863 5.30057 19.3968 6.08954 19.3988C10.09 19.4058 14.0904 19.4048 18.0908 19.3988C18.8737 19.3978 19.3344 18.9134 19.3122 18.1352C19.2606 16.3662 18.6757 14.7858 17.4493 13.4992C16.8432 12.8634 16.1058 12.35 15.3986 11.7573H15.3976Z" fill="url(#paint0_linear_80_379)"/>
<path d="M7.29577 17.1174C7.80492 14.9142 9.90009 13.3117 12.1609 13.3558C14.4188 13.3999 16.4968 15.0486 16.8715 17.1174H7.29577Z" fill="url(#paint1_linear_80_379)"/>
<path d="M12.0882 11.0945C11.0396 11.0925 10.1748 10.2371 10.187 9.21421C10.2001 8.1432 11.0103 7.33493 12.0771 7.32891C13.162 7.32289 13.9934 8.1422 14.0005 9.22223C14.0076 10.2451 13.1378 11.0955 12.0872 11.0945H12.0882Z" fill="url(#paint2_linear_80_379)"/>
<defs>
<linearGradient id="paint0_linear_80_379" x1="7.65704" y1="0.223993" x2="13.6247" y2="28.4952" gradientUnits="userSpaceOnUse">
<stop stop-color="#EF4174"/>
<stop offset="1" stop-color="#5129D2"/>
</linearGradient>
<linearGradient id="paint1_linear_80_379" x1="7.65704" y1="0.223993" x2="13.6247" y2="28.4952" gradientUnits="userSpaceOnUse">
<stop stop-color="#EF4174"/>
<stop offset="1" stop-color="#5129D2"/>
</linearGradient>
<linearGradient id="paint2_linear_80_379" x1="7.65704" y1="0.223993" x2="13.6247" y2="28.4952" gradientUnits="userSpaceOnUse">
<stop stop-color="#EF4174"/>
<stop offset="1" stop-color="#5129D2"/>
</linearGradient>
</defs>
</svg>
