<svg width="28" height="28" viewBox="0 0 28 28" fill="none" xmlns="http://www.w3.org/2000/svg">
<path d="M26.5105 25.8409H25.319V19.5856C25.319 18.1073 24.1164 16.9047 22.6381 16.9047H21.7445V10.6494C21.7445 9.17117 20.5419 7.9686 19.0637 7.9686H14.5956V7.20819C15.6335 6.83813 16.3828 5.85549 16.3828 4.69205C16.3828 4.22312 16.2595 3.76089 16.0256 3.3554C16.0256 3.3554 16.025 3.35508 16.025 3.35481L14.4758 0.670814C14.3164 0.394418 14.0214 0.223999 13.7021 0.223999C13.3827 0.223999 13.0877 0.394418 12.9283 0.670814L11.3784 3.3554C11.1445 3.76089 11.0212 4.22318 11.0212 4.69205C11.0212 5.85549 11.7705 6.83813 12.8084 7.20819V7.9686H8.34038C6.86211 7.9686 5.65954 9.17117 5.65954 10.6494V16.9047H4.76596C3.28769 16.9047 2.08512 18.1073 2.08512 19.5856C2.08512 19.8042 2.08512 23.9656 2.08512 25.8409H0.893631C0.400303 25.8409 0 26.2409 0 26.7345C0 27.2281 0.400303 27.6281 0.893631 27.6281H26.5105C27.0039 27.6281 27.4042 27.2281 27.4042 26.7345C27.4041 26.2409 27.0038 25.8409 26.5105 25.8409ZM12.9265 4.2485L13.7021 2.90516L14.4776 4.2485C14.5561 4.38461 14.5957 4.53383 14.5957 4.6921C14.5957 5.18484 14.1948 5.58573 13.7021 5.58573C13.2093 5.58573 12.8084 5.18484 12.8084 4.6921C12.8084 4.53383 12.8486 4.38428 12.9265 4.2485ZM7.44674 10.6495C7.44674 10.1568 7.84764 9.75586 8.34038 9.75586H19.0637C19.5565 9.75586 19.9574 10.1568 19.9574 10.6495V13.2217C19.8727 13.1364 19.7857 13.0462 19.6828 12.9341C19.1644 12.3703 18.4547 11.598 17.237 11.598C16.0199 11.598 15.3107 12.3701 14.7923 12.9335C14.2972 13.4725 14.0563 13.6918 13.6625 13.6918C13.2565 13.6918 12.9952 13.4309 12.5304 12.9306C12.0079 12.3684 11.293 11.598 10.0881 11.598C8.87101 11.598 8.16182 12.3701 7.64403 12.9335C7.57151 13.0125 7.5106 13.0751 7.4468 13.1418L7.44674 10.6495ZM23.5318 20.6767C22.8128 20.9253 22.3241 21.4535 21.9412 21.8697C21.4461 22.4087 21.2052 22.628 20.8114 22.628C20.4181 22.628 20.1778 22.4087 19.6827 21.8702C19.1644 21.3065 18.4546 20.5342 17.2369 20.5342C16.0198 20.5342 15.3107 21.3062 14.7923 21.8697C14.2972 22.4087 14.0563 22.628 13.6624 22.628C13.2564 22.628 12.9952 22.3671 12.5303 21.8668C12.0079 21.3045 11.2929 20.5342 10.088 20.5342C8.87096 20.5342 8.16177 21.3062 7.64339 21.8697C7.1483 22.4087 6.90744 22.628 6.51356 22.628C6.08826 22.628 5.73163 22.2702 5.19463 21.6809C4.81836 21.2681 4.40403 20.8185 3.87228 20.5205V19.5856C3.87228 19.0929 4.27317 18.692 4.76591 18.692H22.6381C23.1309 18.692 23.5318 19.0929 23.5318 19.5856V20.6767Z" fill="url(#paint0_linear_80_376)"/>
<defs>
<linearGradient id="paint0_linear_80_376" x1="13.7021" y1="0.223999" x2="13.7021" y2="27.6281" gradientUnits="userSpaceOnUse">
<stop stop-color="#EF4174"/>
<stop offset="1" stop-color="#5129D2"/>
</linearGradient>
</defs>
</svg>
