<svg width="28" height="28" viewBox="0 0 28 28" fill="none" xmlns="http://www.w3.org/2000/svg">
<path d="M0 20.7236C0.0478145 20.5173 0.0827833 20.3075 0.145584 20.1056C0.59447 18.6633 1.58287 17.8362 3.05799 17.5743C3.67172 17.4651 4.2876 17.3702 4.89991 17.2574C5.06976 17.226 5.17181 17.2667 5.28172 17.4066C6.13595 18.4949 7.20643 19.2599 8.59447 19.4883C10.3258 19.7737 11.7852 19.2049 13.0234 18.0003C13.1376 17.889 13.2482 17.7734 13.3616 17.6613C13.3652 17.6578 13.3773 17.6613 13.3916 17.6628C13.4601 17.9425 13.5151 18.2287 13.6014 18.5049C13.8534 19.3127 14.2937 20.0071 14.9224 20.5737C15.0566 20.6943 15.1094 20.8149 15.0972 20.9876C15.0851 21.1561 15.0844 21.3266 15.0965 21.495C15.1415 22.133 15.0137 22.6876 14.6719 23.272C13.8655 24.6494 13.979 26.0638 14.8189 27.419C14.8603 27.4861 14.896 27.5575 14.9345 27.6267H0.642284C0.331133 27.5111 0.123461 27.2906 0 26.9859C0 24.8984 0 22.811 0 20.7236Z" fill="url(#paint0_linear_80_378)"/>
<path d="M9.9554 0.223999C10.4271 0.310351 10.906 0.368156 11.3684 0.488049C12.8228 0.863429 14.0089 1.64131 14.9281 2.84595C15.8958 4.11481 16.8807 5.37155 17.8969 6.60117C19.5154 8.56013 18.9531 11.0572 17.0626 12.4303C16.6373 12.7393 16.1784 12.979 15.6311 13.1496C16.0928 11.6338 15.9094 10.1209 15.9265 8.62293C15.9436 7.15353 14.9231 6.16227 13.4523 6.16227C10.7504 6.16084 8.04853 6.16084 5.34666 6.16227C3.8901 6.16299 2.89028 7.15781 2.886 8.60866C2.88314 9.4472 2.85888 10.2864 2.89385 11.1228C2.92168 11.7844 3.02444 12.4424 3.09438 13.1089C2.38787 12.8713 1.73702 12.4731 1.19108 11.9107C0.586619 11.2877 0.186976 10.5548 0.0471008 9.68984C0.038537 9.63846 0.0157003 9.5885 0 9.53855C0 9.25309 0 8.96763 0 8.68217C0.0149866 8.65077 0.0378234 8.62079 0.0428189 8.58796C0.152007 7.86575 0.461017 7.23631 0.913471 6.66754C1.93898 5.37869 2.96878 4.0934 3.97431 2.78957C4.87993 1.61419 6.05531 0.865569 7.47619 0.493758C7.9372 0.371011 8.41463 0.311778 8.88493 0.223999C9.24175 0.223999 9.59858 0.223999 9.9554 0.223999Z" fill="url(#paint1_linear_80_378)"/>
<path d="M27.4042 22.704C27.0738 23.3284 26.7191 23.4469 26.0747 23.1457C24.8408 22.5691 23.609 21.9882 22.3716 21.418C22.1953 21.3366 22.1225 21.246 22.1232 21.0419C22.1311 18.4827 22.1304 15.9236 22.1239 13.3644C22.1239 13.1767 22.181 13.0847 22.3537 13.0048C23.5748 12.4431 24.7901 11.8693 26.0069 11.2977C26.717 10.9644 26.9953 11.0394 27.4035 11.6781L27.4042 22.704Z" fill="url(#paint2_linear_80_378)"/>
<path d="M17.8769 27.6282C17.8462 27.6132 17.817 27.5903 17.7841 27.5839C16.5296 27.3341 15.6725 26.2794 15.7517 25.0819C15.8359 23.8123 16.78 22.8553 18.0696 22.7896C18.6355 22.7611 19.2207 22.7532 19.7717 22.8645C20.9228 23.0986 21.6607 24.1263 21.6236 25.3117C21.5886 26.4199 20.7508 27.3727 19.6311 27.5782C19.5804 27.5875 19.5326 27.611 19.4833 27.6282H17.8769Z" fill="url(#paint3_linear_80_378)"/>
<path d="M9.40949 7.76442C10.7383 7.76442 12.0664 7.76371 13.3952 7.76442C14.0568 7.76442 14.3301 8.0299 14.3272 8.68218C14.323 9.64489 14.3472 10.6097 14.2923 11.5696C14.2159 12.8963 13.6293 13.996 12.6309 14.8667C12.4561 15.0194 12.3761 15.1671 12.4011 15.3898C12.4132 15.4954 12.3875 15.606 12.4061 15.7102C12.486 16.1733 12.2719 16.4973 11.9594 16.8128C10.303 18.4792 7.89727 18.2986 6.52135 16.3846C6.44713 16.2818 6.41288 16.1155 6.42929 15.9885C6.50708 15.3926 6.31653 14.9673 5.85909 14.5362C4.94776 13.677 4.52242 12.553 4.49744 11.297C4.4796 10.3878 4.48959 9.4779 4.49316 8.56871C4.4953 8.06701 4.78933 7.76871 5.29102 7.76728C6.66408 7.76228 8.03714 7.76585 9.4102 7.76514L9.40949 7.76442Z" fill="url(#paint4_linear_80_378)"/>
<path d="M20.5062 21.3573C19.2295 21.0947 17.9806 21.0568 16.6996 21.4237C16.6996 21.0005 16.691 20.5873 16.7031 20.1741C16.7088 19.9792 16.661 19.8622 16.4798 19.7494C15.2594 18.9915 14.7085 17.5186 15.111 16.1477C15.5049 14.8053 16.7495 13.8761 18.169 13.869C18.9426 13.8654 19.7162 13.869 20.5069 13.869L20.5062 21.3573Z" fill="url(#paint5_linear_80_378)"/>
<defs>
<linearGradient id="paint0_linear_80_378" x1="17.0124" y1="0.223999" x2="17.0124" y2="27.6282" gradientUnits="userSpaceOnUse">
<stop stop-color="#EF4174"/>
<stop offset="1" stop-color="#5129D2"/>
</linearGradient>
<linearGradient id="paint1_linear_80_378" x1="17.0124" y1="0.223999" x2="17.0124" y2="27.6282" gradientUnits="userSpaceOnUse">
<stop stop-color="#EF4174"/>
<stop offset="1" stop-color="#5129D2"/>
</linearGradient>
<linearGradient id="paint2_linear_80_378" x1="17.0124" y1="0.223999" x2="17.0124" y2="27.6282" gradientUnits="userSpaceOnUse">
<stop stop-color="#EF4174"/>
<stop offset="1" stop-color="#5129D2"/>
</linearGradient>
<linearGradient id="paint3_linear_80_378" x1="17.0124" y1="0.223999" x2="17.0124" y2="27.6282" gradientUnits="userSpaceOnUse">
<stop stop-color="#EF4174"/>
<stop offset="1" stop-color="#5129D2"/>
</linearGradient>
<linearGradient id="paint4_linear_80_378" x1="17.0124" y1="0.223999" x2="17.0124" y2="27.6282" gradientUnits="userSpaceOnUse">
<stop stop-color="#EF4174"/>
<stop offset="1" stop-color="#5129D2"/>
</linearGradient>
<linearGradient id="paint5_linear_80_378" x1="17.0124" y1="0.223999" x2="17.0124" y2="27.6282" gradientUnits="userSpaceOnUse">
<stop stop-color="#EF4174"/>
<stop offset="1" stop-color="#5129D2"/>
</linearGradient>
</defs>
</svg>
