<svg width="41" height="41" viewBox="0 0 41 41" fill="none" xmlns="http://www.w3.org/2000/svg">
<path d="M20.0191 24.416C21.9585 24.416 23.5459 22.8364 23.5459 20.8892C23.5459 20.1229 23.2957 19.4113 22.8812 18.8326C22.24 17.9489 21.1999 17.3624 20.0269 17.3624C18.8539 17.3624 17.8139 17.9411 17.1727 18.8326C16.7582 19.4113 16.508 20.1229 16.508 20.8892C16.5001 22.8364 18.0798 24.416 20.0191 24.416Z" fill="#EF4174"/>
<path d="M27.7139 16.5882V13.6323V13.1943H27.276L24.3201 13.2022L24.3357 16.596L27.7139 16.5882Z" fill="#EF4174"/>
<path d="M25.493 20.897C25.493 23.9155 23.0375 26.3709 20.019 26.3709C17.0005 26.3709 14.5451 23.9155 14.5451 20.897C14.5451 20.1697 14.6936 19.4737 14.9517 18.8403H11.9645V27.0356C11.9645 28.0913 12.8247 28.9515 13.8804 28.9515H26.1577C27.2134 28.9515 28.0736 28.0913 28.0736 27.0356V18.8403H25.0863C25.3522 19.4737 25.493 20.1697 25.493 20.897Z" fill="#EF4174"/>
<path d="M20.0191 0.87793C8.96166 0.87793 0 9.83959 0 20.897C0 31.9544 8.96166 40.9161 20.0191 40.9161C31.0765 40.9161 40.0381 31.9544 40.0381 20.897C40.0381 9.83959 31.0765 0.87793 20.0191 0.87793ZM30.0286 18.8403V27.0357C30.0286 29.1705 28.2926 30.9065 26.1577 30.9065H13.8804C11.7456 30.9065 10.0095 29.1705 10.0095 27.0357V18.8403V14.7505C10.0095 12.6157 11.7456 10.8796 13.8804 10.8796H26.1577C28.2926 10.8796 30.0286 12.6157 30.0286 14.7505V18.8403Z" fill="#EF4174"/>
</svg>
