<svg width="41" height="41" viewBox="0 0 41 41" fill="none" xmlns="http://www.w3.org/2000/svg">
<path d="M20.0191 0.916016C8.96166 0.916016 0 9.87767 0 20.9351C0 31.9925 8.96166 40.9541 20.0191 40.9541C31.0765 40.9541 40.0381 31.9925 40.0381 20.9351C40.0381 9.87767 31.0765 0.916016 20.0191 0.916016Z" fill="#EF4174"/>
<path fill-rule="evenodd" clip-rule="evenodd" d="M23.3526 16.7187C24.6627 17.6714 26.2672 18.232 28 18.232V15.5609C27.0327 15.3513 26.1764 14.8369 25.5326 14.1214C24.4305 13.4217 23.6365 12.2672 23.4037 10.916H20.9743V24.4696C20.9688 26.0496 19.7086 27.3289 18.1545 27.3289C17.2387 27.3289 16.4252 26.8848 15.9099 26.1968C14.9898 25.7243 14.3589 24.7542 14.3589 23.6339C14.3589 22.0493 15.6212 20.7647 17.1785 20.7647C17.4769 20.7647 17.7645 20.812 18.0343 20.8991V18.1989C14.6898 18.2692 12 21.0498 12 24.4697C12 26.1768 12.6698 27.7244 13.7569 28.8551C14.7377 29.5253 15.9183 29.916 17.1885 29.916C20.5928 29.916 23.3526 27.1078 23.3526 23.6437V16.7187Z" fill="#261A5A"/>
</svg>
